<svg xmlns="http://www.w3.org/2000/svg" viewBox="0 0 40 40" fill="none">
  <path d="M19.8 6C13.4 6 14 8.8 14 8.8v3h6v1H11.4S6 12.2 6 18.8s4.7 6.4 4.7 6.4h2.8v-3.1s-.1-4.7 4.6-4.7h8s4.5.1 4.5-4.3V8.8S31.2 6 19.8 6zm-3.3 1.6c.8 0 1.5.7 1.5 1.5s-.7 1.5-1.5 1.5-1.5-.7-1.5-1.5.7-1.5 1.5-1.5z" fill="#3776AB"/>
  <path d="M20.2 34c6.4 0 5.8-2.8 5.8-2.8v-3h-6v-1h8.6S34 27.8 34 21.2s-4.7-6.4-4.7-6.4h-2.8v3.1s.1 4.7-4.6 4.7h-8s-4.5-.1-4.5 4.3v4.3S8.8 34 20.2 34zm3.3-1.6c-.8 0-1.5-.7-1.5-1.5s.7-1.5 1.5-1.5 1.5.7 1.5 1.5-.7 1.5-1.5 1.5z" fill="#FFD43B"/>
</svg>
