<svg xmlns="http://www.w3.org/2000/svg" viewBox="0 0 40 40" fill="none">
  <circle cx="20" cy="20" r="18" fill="#C51A4A"/>
  <path d="M20 8c-1.5 0-2.8.6-3.5 1.5C15.5 8.6 14 8.2 12.8 9c-1.2.8-1.6 2.2-1.2 3.4-.8.8-1.2 2-1 3.2.2 1.2 1 2.2 2 2.8-.2 1.2.2 2.4 1 3.2.8.8 2 1.2 3.2 1 .6 1 1.8 1.8 3.2 2 1.4.2 2.6-.2 3.5-1 .8.8 2 1.2 3.2 1 1.2-.2 2.2-1 2.8-2 1.2.2 2.4-.2 3.2-1 .8-.8 1.2-2 1-3.2 1-.6 1.8-1.8 2-3.2.2-1.4-.2-2.6-1-3.5.8-.8 1.2-2 1-3.2-.2-1.2-1-2.2-2-2.8.2-1.2-.2-2.4-1-3.2-.8-.8-2-1.2-3.2-1C22.8 8.6 21.5 8 20 8z" fill="white"/>
  <circle cx="17" cy="18" r="2" fill="#C51A4A"/>
  <circle cx="23" cy="18" r="2" fill="#C51A4A"/>
  <path d="M16 23c0 0 2 2 4 2s4-2 4-2" stroke="#C51A4A" stroke-width="1.5" stroke-linecap="round"/>
</svg>
